<?xml version="1.0" encoding="UTF-8" standalone="no" ?>
<!DOCTYPE svg PUBLIC "-//W3C//DTD SVG 1.1//EN" "http://www.w3.org/Graphics/SVG/1.1/DTD/svg11.dtd">
<svg xmlns="http://www.w3.org/2000/svg" xmlns:xlink="http://www.w3.org/1999/xlink" version="1.1" width="1080" height="1080" viewBox="0 0 1080 1080" xml:space="preserve">
<desc>Created with Fabric.js 5.2.4</desc>
<defs>
</defs>
<rect x="0" y="0" width="100%" height="100%" fill="transparent"></rect>
<g transform="matrix(1 0 0 1 540 540)" id="24730f47-9a17-4ca9-af89-f50e70119193"  >
<rect style="stroke: none; stroke-width: 1; stroke-dasharray: none; stroke-linecap: butt; stroke-dashoffset: 0; stroke-linejoin: miter; stroke-miterlimit: 4; fill: rgb(255,255,255); fill-rule: nonzero; opacity: 1; visibility: hidden;" vector-effect="non-scaling-stroke"  x="-540" y="-540" rx="0" ry="0" width="1080" height="1080" />
</g>
<g transform="matrix(1 0 0 1 540 540)" id="ebf96a78-48d8-4a97-8fd6-cde0f58daa44"  >
</g>
<g transform="matrix(1 0 0 1 555.88 540)" style="" id="87eb7117-b7af-447a-81fc-10c6d4391ab1"  >
		<text xml:space="preserve" font-family="Raleway" font-size="28" font-style="normal" font-weight="900" style="stroke: none; stroke-width: 1; stroke-dasharray: none; stroke-linecap: butt; stroke-dashoffset: 0; stroke-linejoin: miter; stroke-miterlimit: 4; fill: rgb(0,0,0); fill-rule: nonzero; opacity: 1; white-space: pre;" ><tspan x="-48.26" y="8.8" >C</tspan><tspan x="-29.75" y="8.8" >r</tspan><tspan x="-18.94" y="8.8" >i</tspan><tspan x="-11.77" y="8.8" >s</tspan><tspan x="1.41" y="8.8" >e</tspan><tspan x="17.63" y="8.8" >.</tspan><tspan x="23.9" y="8.8" >i</tspan><tspan x="31.07" y="8.8" >o</tspan></text>
</g>
<g transform="matrix(1 0 0 1 484.2 539.34)"  >
<path style="stroke: none; stroke-width: 1; stroke-dasharray: none; stroke-linecap: butt; stroke-dashoffset: 0; stroke-linejoin: miter; stroke-miterlimit: 4; fill: rgb(74,108,247); fill-rule: nonzero; opacity: 1;" vector-effect="non-scaling-stroke"  transform=" translate(-12.5, -12.5)" d="M 0 0 C 13.8071 0 25 11.1929 25 25 L 2 25 C 0.89543 25 0 24.1046 0 23 z" stroke-linecap="round" />
</g>
<g transform="matrix(1 0 0 1 490.2 539.34)"  >
<path style="stroke: none; stroke-width: 1; stroke-dasharray: none; stroke-linecap: butt; stroke-dashoffset: 0; stroke-linejoin: miter; stroke-miterlimit: 4; fill: rgb(74,108,247); fill-rule: nonzero; opacity: 0.5;" vector-effect="non-scaling-stroke"  transform=" translate(-18.5, -12.5)" d="M 6 25 C 6 11.1929 17.1929 0 31 0 L 31 23 C 31 24.1046 30.1046 25 29 25 z" stroke-linecap="round" />
</g>
</svg>